<svg xmlns="http://www.w3.org/2000/svg" width="300" height="192" viewBox="0 0 300 192"><rect x="1" y="1" width="298" height="190" rx="13" fill="#0d1117" stroke="#25384e" stroke-width="2"/><path d="M22 0H278" stroke="#38bdf8" stroke-width="4"/><circle cx="245" cy="53" r="75" fill="#38bdf8" opacity=".045"/><rect x="236" y="26" width="5" height="5" fill="#38bdf8"/><rect x="236" y="32" width="5" height="5" fill="#38bdf8"/><rect x="236" y="38" width="5" height="5" fill="#38bdf8"/><rect x="236" y="50" width="5" height="5" fill="#38bdf8"/><rect x="236" y="56" width="5" height="5" fill="#38bdf8"/><rect x="236" y="62" width="5" height="5" fill="#38bdf8"/><rect x="242" y="26" width="5" height="5" fill="#38bdf8"/><rect x="242" y="32" width="5" height="5" fill="#38bdf8"/><rect x="242" y="38" width="5" height="5" fill="#38bdf8"/><rect x="242" y="50" width="5" height="5" fill="#38bdf8"/><rect x="242" y="56" width="5" height="5" fill="#38bdf8"/><rect x="242" y="62" width="5" height="5" fill="#38bdf8"/><rect x="248" y="26" width="5" height="5" fill="#38bdf8"/><rect x="248" y="32" width="5" height="5" fill="#38bdf8"/><rect x="248" y="38" width="5" height="5" fill="#38bdf8"/><rect x="248" y="50" width="5" height="5" fill="#38bdf8"/><rect x="248" y="56" width="5" height="5" fill="#38bdf8"/><rect x="248" y="62" width="5" height="5" fill="#38bdf8"/><rect x="260" y="26" width="5" height="5" fill="#38bdf8"/><rect x="260" y="32" width="5" height="5" fill="#38bdf8"/><rect x="260" y="38" width="5" height="5" fill="#38bdf8"/><rect x="266" y="26" width="5" height="5" fill="#38bdf8"/><rect x="266" y="32" width="5" height="5" fill="#38bdf8"/><rect x="266" y="38" width="5" height="5" fill="#38bdf8"/><rect x="266" y="56" width="5" height="5" fill="#38bdf8"/><rect x="272" y="26" width="5" height="5" fill="#38bdf8"/><rect x="272" y="32" width="5" height="5" fill="#38bdf8"/><rect x="272" y="38" width="5" height="5" fill="#38bdf8"/><rect x="272" y="50" width="5" height="5" fill="#38bdf8"/><g font-family="Segoe UI,Arial,sans-serif"><text x="22" y="39" fill="#38bdf8" font-family="Consolas,monospace" font-size="11">01 / DOCUMENTATION</text><text x="22" y="100" fill="#f0f6fc" font-weight="700" font-size="24">Scanova</text><text x="22" y="126" fill="#8b949e" font-family="Consolas,monospace" font-size="11">QR STOREFRONT SAAS</text><path d="M22 149H278" stroke="#25384e"/><text x="22" y="172" fill="#38bdf8" font-family="Consolas,monospace" font-size="10">PRODUCT ARCHITECTURE</text></g></svg>