<svg xmlns="http://www.w3.org/2000/svg" width="600" height="242" viewBox="0 0 600 242"><rect x="1" y="1" width="598" height="240" rx="13" fill="#0d1117" stroke="#25384e" stroke-width="2"/><path d="M30 0H570" stroke="#38bdf8" stroke-width="4"/><circle cx="545" cy="53" r="75" fill="#38bdf8" opacity=".045"/><rect x="493" y="46" width="5" height="5" fill="#38bdf8"/><rect x="493" y="52" width="5" height="5" fill="#38bdf8"/><rect x="493" y="58" width="5" height="5" fill="#38bdf8"/><rect x="493" y="70" width="5" height="5" fill="#38bdf8"/><rect x="493" y="76" width="5" height="5" fill="#38bdf8"/><rect x="493" y="82" width="5" height="5" fill="#38bdf8"/><rect x="499" y="46" width="5" height="5" fill="#38bdf8"/><rect x="499" y="52" width="5" height="5" fill="#38bdf8"/><rect x="499" y="58" width="5" height="5" fill="#38bdf8"/><rect x="499" y="70" width="5" height="5" fill="#38bdf8"/><rect x="499" y="76" width="5" height="5" fill="#38bdf8"/><rect x="499" y="82" width="5" height="5" fill="#38bdf8"/><rect x="505" y="46" width="5" height="5" fill="#38bdf8"/><rect x="505" y="52" width="5" height="5" fill="#38bdf8"/><rect x="505" y="58" width="5" height="5" fill="#38bdf8"/><rect x="505" y="70" width="5" height="5" fill="#38bdf8"/><rect x="505" y="76" width="5" height="5" fill="#38bdf8"/><rect x="505" y="82" width="5" height="5" fill="#38bdf8"/><rect x="517" y="46" width="5" height="5" fill="#38bdf8"/><rect x="517" y="52" width="5" height="5" fill="#38bdf8"/><rect x="517" y="58" width="5" height="5" fill="#38bdf8"/><rect x="523" y="46" width="5" height="5" fill="#38bdf8"/><rect x="523" y="52" width="5" height="5" fill="#38bdf8"/><rect x="523" y="58" width="5" height="5" fill="#38bdf8"/><rect x="523" y="76" width="5" height="5" fill="#38bdf8"/><rect x="529" y="46" width="5" height="5" fill="#38bdf8"/><rect x="529" y="52" width="5" height="5" fill="#38bdf8"/><rect x="529" y="58" width="5" height="5" fill="#38bdf8"/><rect x="529" y="70" width="5" height="5" fill="#38bdf8"/><g font-family="Segoe UI,Arial,sans-serif"><text x="30" y="39" fill="#38bdf8" font-family="Consolas,monospace" font-size="14">01 / DOCUMENTATION</text><text x="30" y="119" fill="#f0f6fc" font-weight="700" font-size="37">Scanova</text><text x="30" y="152" fill="#8b949e" font-family="Consolas,monospace" font-size="16">QR STOREFRONT SAAS</text><path d="M30 199H570" stroke="#25384e"/><text x="30" y="222" fill="#38bdf8" font-family="Consolas,monospace" font-size="12">PRODUCT ARCHITECTURE</text></g></svg>